<?xml version="1.0" encoding="UTF-8" standalone="no"?>
<!-- Created with Inkscape (http://www.inkscape.org/) -->

<svg
   xmlns:dc="http://purl.org/dc/elements/1.1/"
   xmlns:cc="http://creativecommons.org/ns#"
   xmlns:rdf="http://www.w3.org/1999/02/22-rdf-syntax-ns#"
   xmlns:svg="http://www.w3.org/2000/svg"
   xmlns="http://www.w3.org/2000/svg"
   xmlns:sodipodi="http://sodipodi.sourceforge.net/DTD/sodipodi-0.dtd"
   xmlns:inkscape="http://www.inkscape.org/namespaces/inkscape"
   width="48"
   height="48"
   id="svg2"
   version="1.1"
   inkscape:version="0.48.3.1 r9886"
   sodipodi:docname="autoRef.svg"
   inkscape:export-filename="/home/glavic/Software/Scripte/QuickNXS/icons/autoRef.png"
   inkscape:export-xdpi="90"
   inkscape:export-ydpi="90">
  <defs
     id="defs4" />
  <sodipodi:namedview
     id="base"
     pagecolor="#ffffff"
     bordercolor="#666666"
     borderopacity="1.0"
     inkscape:pageopacity="0.0"
     inkscape:pageshadow="2"
     inkscape:zoom="11.2"
     inkscape:cx="14.790649"
     inkscape:cy="24.079316"
     inkscape:document-units="px"
     inkscape:current-layer="layer1"
     showgrid="false"
     inkscape:window-width="1818"
     inkscape:window-height="1005"
     inkscape:window-x="98"
     inkscape:window-y="-6"
     inkscape:window-maximized="1">
    <inkscape:grid
       type="xygrid"
       id="grid2985"
       empspacing="5"
       visible="true"
       enabled="true"
       snapvisiblegridlinesonly="true" />
  </sodipodi:namedview>
  <metadata
     id="metadata7">
    <rdf:RDF>
      <cc:Work
         rdf:about="">
        <dc:format>image/svg+xml</dc:format>
        <dc:type
           rdf:resource="http://purl.org/dc/dcmitype/StillImage" />
        <dc:title></dc:title>
      </cc:Work>
    </rdf:RDF>
  </metadata>
  <g
     inkscape:label="Layer 1"
     inkscape:groupmode="layer"
     id="layer1"
     transform="translate(0,-1004.3622)">
    <path
       style="fill:none;stroke:#ff0000;stroke-width:2.83151817;stroke-linecap:round;stroke-linejoin:round;stroke-opacity:1"
       d="m 1.3940352,1005.8482 12.7264068,0 c 0,0 0.509325,10.1 1.156947,13.8597 0.647621,3.7598 0.536335,7.2204 2.313893,8.6624 1.777559,1.4419 4.060722,-2.5142 5.784731,-1.7326 1.72401,0.7818 2.344067,2.3299 3.470839,5.1975 1.12677,2.8676 0.135824,10.0656 2.313893,12.1273 2.178067,2.0617 5.115133,-2.3196 6.941676,-1.7325 1.826544,0.5872 2.487624,1.9927 3.470839,3.4649 0.983216,1.4724 0.808496,4.5988 2.313892,5.1975 1.505395,0.5986 4.627785,-3.465 4.627785,-3.465"
       id="path2999"
       inkscape:connector-curvature="0"
       sodipodi:nodetypes="cczzzzzzzzc"
       inkscape:export-filename="/home/glavic/Software/Scripte/QuickNXS/icons/totalReflection.png"
       inkscape:export-xdpi="90"
       inkscape:export-ydpi="90" />
    <path
       inkscape:export-ydpi="90"
       inkscape:export-xdpi="90"
       inkscape:export-filename="/home/glavic/Software/Scripte/QuickNXS/icons/totalReflection.png"
       sodipodi:nodetypes="czzzzzzzc"
       inkscape:connector-curvature="0"
       id="path3166"
       d="m 15.277389,1019.7079 c 0.647621,3.7598 0.536335,7.2204 2.313893,8.6624 1.777559,1.4419 4.060722,-2.5142 5.784731,-1.7326 1.72401,0.7818 2.344067,2.3299 3.470839,5.1975 1.12677,2.8676 0.135824,10.0656 2.313893,12.1273 2.178067,2.0617 5.115133,-2.3196 6.941676,-1.7325 1.826544,0.5872 2.487624,1.9927 3.470839,3.4649 0.983216,1.4724 0.808496,4.5988 2.313892,5.1975 1.505395,0.5986 4.627785,-3.465 4.627785,-3.465"
       style="fill:none;stroke:#008000;stroke-width:2.83151817;stroke-linecap:round;stroke-linejoin:round;stroke-opacity:1" />
    <path
       style="fill:none;stroke:#0000ff;stroke-width:2.83151817;stroke-linecap:round;stroke-linejoin:round;stroke-opacity:1"
       d="m 23.376013,1026.6377 c 1.72401,0.7818 2.344067,2.3299 3.470839,5.1975 1.12677,2.8676 0.135824,10.0656 2.313893,12.1273 2.178067,2.0617 5.115133,-2.3196 6.941676,-1.7325 1.826544,0.5872 2.487624,1.9927 3.470839,3.4649 0.983216,1.4724 0.808496,4.5988 2.313892,5.1975 1.505395,0.5986 4.627785,-3.465 4.627785,-3.465"
       id="path3168"
       inkscape:connector-curvature="0"
       sodipodi:nodetypes="czzzzzc"
       inkscape:export-filename="/home/glavic/Software/Scripte/QuickNXS/icons/totalReflection.png"
       inkscape:export-xdpi="90"
       inkscape:export-ydpi="90" />
    <path
       inkscape:export-ydpi="90"
       inkscape:export-xdpi="90"
       inkscape:export-filename="/home/glavic/Software/Scripte/QuickNXS/icons/totalReflection.png"
       sodipodi:nodetypes="czzzc"
       inkscape:connector-curvature="0"
       id="path3170"
       d="m 29.160745,1043.9625 c 2.178067,2.0617 5.115133,-2.3196 6.941676,-1.7325 1.826544,0.5872 2.487624,1.9927 3.470839,3.4649 0.983216,1.4724 0.808496,4.5988 2.313892,5.1975 1.505395,0.5986 4.627785,-3.465 4.627785,-3.465"
       style="fill:none;stroke:#800080;stroke-width:2.83151817;stroke-linecap:round;stroke-linejoin:round;stroke-opacity:1" />
    <path
       style="fill:none;stroke:#000000;stroke-width:3.0825789;stroke-linecap:round;stroke-linejoin:miter;stroke-miterlimit:4;stroke-opacity:1;stroke-dasharray:none"
       d="M 4.4704603,1048.061 27.030911,1017.1736"
       id="path3172"
       inkscape:connector-curvature="0"
       sodipodi:nodetypes="cc" />
    <path
       sodipodi:type="star"
       style="fill:#ffff00;fill-opacity:1;stroke:#ffcc00;stroke-width:2;stroke-linecap:square;stroke-linejoin:miter;stroke-miterlimit:4;stroke-opacity:1;stroke-dasharray:none"
       id="path3176"
       sodipodi:sides="5"
       sodipodi:cx="24"
       sodipodi:cy="13"
       sodipodi:r1="9.4339809"
       sodipodi:r2="4.7169905"
       sodipodi:arg1="-0.55859932"
       sodipodi:arg2="0.069719215"
       inkscape:flatsided="false"
       inkscape:rounded="0"
       inkscape:randomized="0"
       d="M 32,8.0000001 28.705531,13.328599 31.227418,19.063367 25.141573,17.576768 20.46679,21.747367 20,15.5 14.588938,12.342803 20.386291,9.9683165 21.716853,3.8464631 25.766605,8.6263166 z"
       transform="matrix(1.0933128,0,0,1.0976912,1.0933725,1002.5652)"
       inkscape:transform-center-x="0.77136828"
       inkscape:transform-center-y="-0.22298125" />
  </g>
</svg>
