<?xml version="1.0" encoding="UTF-8" standalone="no"?>
<!-- Created with Inkscape (http://www.inkscape.org/) -->

<svg
   xmlns:dc="http://purl.org/dc/elements/1.1/"
   xmlns:cc="http://creativecommons.org/ns#"
   xmlns:rdf="http://www.w3.org/1999/02/22-rdf-syntax-ns#"
   xmlns:svg="http://www.w3.org/2000/svg"
   xmlns="http://www.w3.org/2000/svg"
   xmlns:sodipodi="http://sodipodi.sourceforge.net/DTD/sodipodi-0.dtd"
   xmlns:inkscape="http://www.inkscape.org/namespaces/inkscape"
   width="48"
   height="48"
   id="svg2"
   version="1.1"
   inkscape:version="0.48.3.1 r9886"
   sodipodi:docname="totalReflection.svg"
   inkscape:export-filename="/home/glavic/Software/Scripte/QuickNXS/icons/totalReflection.png"
   inkscape:export-xdpi="90"
   inkscape:export-ydpi="90">
  <defs
     id="defs4" />
  <sodipodi:namedview
     id="base"
     pagecolor="#ffffff"
     bordercolor="#666666"
     borderopacity="1.0"
     inkscape:pageopacity="0.0"
     inkscape:pageshadow="2"
     inkscape:zoom="11.2"
     inkscape:cx="14.790649"
     inkscape:cy="24.079316"
     inkscape:document-units="px"
     inkscape:current-layer="layer1"
     showgrid="true"
     inkscape:window-width="1818"
     inkscape:window-height="1005"
     inkscape:window-x="98"
     inkscape:window-y="-6"
     inkscape:window-maximized="1">
    <inkscape:grid
       type="xygrid"
       id="grid2985"
       empspacing="5"
       visible="true"
       enabled="true"
       snapvisiblegridlinesonly="true" />
  </sodipodi:namedview>
  <metadata
     id="metadata7">
    <rdf:RDF>
      <cc:Work
         rdf:about="">
        <dc:format>image/svg+xml</dc:format>
        <dc:type
           rdf:resource="http://purl.org/dc/dcmitype/StillImage" />
        <dc:title></dc:title>
      </cc:Work>
    </rdf:RDF>
  </metadata>
  <g
     inkscape:label="Layer 1"
     inkscape:groupmode="layer"
     id="layer1"
     transform="translate(0,-1004.3622)">
    <path
       style="fill:none;stroke:#ff0000;stroke-width:2.75566483;stroke-linecap:round;stroke-linejoin:round;stroke-opacity:1"
       d="m 2,1006.3622 12.410256,0 c 0,0 0.496672,9.8098 1.128205,13.4615 0.631533,3.6518 0.523011,7.013 2.25641,8.4135 1.733401,1.4005 3.959845,-2.4419 5.641026,-1.6827 1.681182,0.7592 2.285836,2.2629 3.384616,5.0481 1.098779,2.7852 0.13245,9.7764 2.256411,11.7788 2.123959,2.0025 4.988062,-2.2529 6.76923,-1.6827 1.781169,0.5703 2.425825,1.9354 3.384615,3.3654 0.958791,1.43 0.788412,4.4667 2.256411,5.0481 1.467997,0.5814 4.51282,-3.3654 4.51282,-3.3654"
       id="path2999"
       inkscape:connector-curvature="0"
       sodipodi:nodetypes="cczzzzzzzzc"
       inkscape:export-filename="/home/glavic/Software/Scripte/QuickNXS/icons/totalReflection.png"
       inkscape:export-xdpi="90"
       inkscape:export-ydpi="90" />
    <path
       inkscape:export-ydpi="90"
       inkscape:export-xdpi="90"
       inkscape:export-filename="/home/glavic/Software/Scripte/QuickNXS/icons/totalReflection.png"
       sodipodi:nodetypes="czzzzzzzc"
       inkscape:connector-curvature="0"
       id="path3166"
       d="m 15.538461,1019.8237 c 0.631533,3.6518 0.523011,7.013 2.25641,8.4135 1.733401,1.4005 3.959845,-2.4419 5.641026,-1.6827 1.681182,0.7592 2.285836,2.2629 3.384616,5.0481 1.098779,2.7852 0.13245,9.7764 2.256411,11.7788 2.123959,2.0025 4.988062,-2.2529 6.76923,-1.6827 1.781169,0.5703 2.425825,1.9354 3.384615,3.3654 0.958791,1.43 0.788412,4.4667 2.256411,5.0481 1.467997,0.5814 4.51282,-3.3654 4.51282,-3.3654"
       style="fill:none;stroke:#008000;stroke-width:2.75566483000000018;stroke-linecap:round;stroke-linejoin:round;stroke-opacity:1" />
    <path
       style="fill:none;stroke:#0000ff;stroke-width:2.75566483000000018;stroke-linecap:round;stroke-linejoin:round;stroke-opacity:1"
       d="m 23.435897,1026.5545 c 1.681182,0.7592 2.285836,2.2629 3.384616,5.0481 1.098779,2.7852 0.13245,9.7764 2.256411,11.7788 2.123959,2.0025 4.988062,-2.2529 6.76923,-1.6827 1.781169,0.5703 2.425825,1.9354 3.384615,3.3654 0.958791,1.43 0.788412,4.4667 2.256411,5.0481 1.467997,0.5814 4.51282,-3.3654 4.51282,-3.3654"
       id="path3168"
       inkscape:connector-curvature="0"
       sodipodi:nodetypes="czzzzzc"
       inkscape:export-filename="/home/glavic/Software/Scripte/QuickNXS/icons/totalReflection.png"
       inkscape:export-xdpi="90"
       inkscape:export-ydpi="90" />
    <path
       inkscape:export-ydpi="90"
       inkscape:export-xdpi="90"
       inkscape:export-filename="/home/glavic/Software/Scripte/QuickNXS/icons/totalReflection.png"
       sodipodi:nodetypes="czzzc"
       inkscape:connector-curvature="0"
       id="path3170"
       d="m 29.076924,1043.3814 c 2.123959,2.0025 4.988062,-2.2529 6.76923,-1.6827 1.781169,0.5703 2.425825,1.9354 3.384615,3.3654 0.958791,1.43 0.788412,4.4667 2.256411,5.0481 1.467997,0.5814 4.51282,-3.3654 4.51282,-3.3654"
       style="fill:none;stroke:#800080;stroke-width:2.75566483000000018;stroke-linecap:round;stroke-linejoin:round;stroke-opacity:1" />
    <path
       style="fill:none;stroke:#000000;stroke-width:2.9999999;stroke-linecap:round;stroke-linejoin:miter;stroke-opacity:1;stroke-miterlimit:4;stroke-dasharray:none"
       d="M 5,43 27,13"
       id="path3172"
       inkscape:connector-curvature="0"
       transform="translate(0,1004.3622)"
       sodipodi:nodetypes="cc" />
    <path
       sodipodi:type="star"
       style="fill:#ffff00;fill-opacity:1;stroke:#ffcc00;stroke-width:2;stroke-linecap:square;stroke-linejoin:miter;stroke-miterlimit:4;stroke-opacity:1;stroke-dasharray:none"
       id="path3176"
       sodipodi:sides="5"
       sodipodi:cx="24"
       sodipodi:cy="13"
       sodipodi:r1="9.4339809"
       sodipodi:r2="4.7169905"
       sodipodi:arg1="-0.55859932"
       sodipodi:arg2="0.069719215"
       inkscape:flatsided="false"
       inkscape:rounded="0"
       inkscape:randomized="0"
       d="M 32,8.0000001 28.705531,13.328599 31.227418,19.063367 25.141573,17.576768 20.46679,21.747367 20,15.5 14.588938,12.342803 20.386291,9.9683165 21.716853,3.8464631 25.766605,8.6263166 z"
       transform="matrix(1.0661526,0,0,1.0661526,1.7068064,1003.1736)"
       inkscape:transform-center-x="0.75220403"
       inkscape:transform-center-y="-0.21653586" />
  </g>
</svg>
