<?xml version="1.0" encoding="UTF-8" standalone="no"?>
<!-- Created with Inkscape (http://www.inkscape.org/) -->

<svg
   xmlns:dc="http://purl.org/dc/elements/1.1/"
   xmlns:cc="http://creativecommons.org/ns#"
   xmlns:rdf="http://www.w3.org/1999/02/22-rdf-syntax-ns#"
   xmlns:svg="http://www.w3.org/2000/svg"
   xmlns="http://www.w3.org/2000/svg"
   xmlns:sodipodi="http://sodipodi.sourceforge.net/DTD/sodipodi-0.dtd"
   xmlns:inkscape="http://www.inkscape.org/namespaces/inkscape"
   width="48"
   height="48"
   id="svg2"
   version="1.1"
   inkscape:version="0.48.3.1 r9886"
   sodipodi:docname="totalReflection.svg"
   inkscape:export-filename="/home/glavic/Software/Scripte/QuickNXS/icons/totalReflection.png"
   inkscape:export-xdpi="90"
   inkscape:export-ydpi="90">
  <defs
     id="defs4" />
  <sodipodi:namedview
     id="base"
     pagecolor="#ffffff"
     bordercolor="#666666"
     borderopacity="1.0"
     inkscape:pageopacity="0.0"
     inkscape:pageshadow="2"
     inkscape:zoom="11.2"
     inkscape:cx="29.746006"
     inkscape:cy="24.079316"
     inkscape:document-units="px"
     inkscape:current-layer="layer1"
     showgrid="false"
     inkscape:window-width="1818"
     inkscape:window-height="1005"
     inkscape:window-x="98"
     inkscape:window-y="-6"
     inkscape:window-maximized="1">
    <inkscape:grid
       type="xygrid"
       id="grid2985"
       empspacing="5"
       visible="true"
       enabled="true"
       snapvisiblegridlinesonly="true" />
  </sodipodi:namedview>
  <metadata
     id="metadata7">
    <rdf:RDF>
      <cc:Work
         rdf:about="">
        <dc:format>image/svg+xml</dc:format>
        <dc:type
           rdf:resource="http://purl.org/dc/dcmitype/StillImage" />
        <dc:title />
      </cc:Work>
    </rdf:RDF>
  </metadata>
  <g
     inkscape:label="Layer 1"
     inkscape:groupmode="layer"
     id="layer1"
     transform="translate(0,-1004.3622)">
    <path
       style="fill:none;stroke:#ff0000;stroke-width:2.19308567;stroke-linecap:round;stroke-linejoin:round;stroke-opacity:1"
       d="m 2.0722939,1014.0014 12.6834371,0 c 0,0 0.507606,6.0793 1.15304,8.3425 0.645435,2.2631 0.534523,4.3461 2.30608,5.2141 1.771557,0.8679 4.04701,-1.5134 5.765198,-1.0429 1.71819,0.4706 2.336154,1.4024 3.45912,3.1285 1.122966,1.726 0.135366,6.0587 2.30608,7.2997 2.170713,1.2409 5.097862,-1.3962 6.918239,-1.0429 1.820376,0.3535 2.479223,1.1995 3.459119,2.0857 0.979896,0.8862 0.805767,2.7681 2.306079,3.1284 1.500313,0.3603 4.612159,-2.0856 4.612159,-2.0856"
       id="path2999"
       inkscape:connector-curvature="0"
       sodipodi:nodetypes="cczzzzzzzzc"
       inkscape:export-filename="/home/glavic/Software/Scripte/QuickNXS/icons/totalReflection.png"
       inkscape:export-xdpi="90"
       inkscape:export-ydpi="90" />
    <path
       style="fill:none;stroke:#000000;stroke-width:1.09654284px;stroke-linecap:butt;stroke-linejoin:miter;stroke-opacity:1"
       d="m 47.040845,1051.5427 -46.12159091,0 0,-44.8411"
       id="path3001"
       inkscape:connector-curvature="0"
       sodipodi:nodetypes="ccc" />
    <flowRoot
       xml:space="preserve"
       id="flowRoot3792"
       style="font-size:26px;font-style:normal;font-weight:normal;text-align:center;line-height:125%;letter-spacing:0px;word-spacing:0px;text-anchor:middle;fill:#000000;fill-opacity:1;stroke:none;font-family:Sans"
       transform="matrix(1.1530398,0,0,1.0428141,-7.9627555,994.64594)"><flowRegion
         id="flowRegion3794"><rect
           id="rect3796"
           width="27.053572"
           height="41.42857"
           x="25.178572"
           y="2.3749998"
           style="font-size:26px;text-align:center;text-anchor:middle" /></flowRegion><flowPara
         id="flowPara3798"
         style="font-weight:bold;font-family:Sans;-inkscape-font-specification:Sans Bold">1</flowPara></flowRoot>    <path
       style="fill:none;stroke:#000000;stroke-width:2.19308567;stroke-linecap:butt;stroke-linejoin:miter;stroke-opacity:1"
       d="m 6.6844531,1014.0014 14.9895169,0"
       id="path3790"
       inkscape:connector-curvature="0"
       sodipodi:nodetypes="cc" />
    <path
       inkscape:export-ydpi="90"
       inkscape:export-xdpi="90"
       inkscape:export-filename="/home/glavic/Software/Scripte/QuickNXS/icons/totalReflection.png"
       sodipodi:nodetypes="czzzzzzc"
       inkscape:connector-curvature="0"
       id="path2990"
       d="m 18.214851,1027.558 c 1.771557,0.8679 4.04701,-1.5134 5.765198,-1.0429 1.71819,0.4706 2.336154,1.4024 3.45912,3.1285 1.122966,1.726 0.135366,6.0587 2.30608,7.2997 2.170713,1.2409 5.097862,-1.3962 6.918239,-1.0429 1.820376,0.3535 2.479223,1.1995 3.459119,2.0857 0.979896,0.8862 0.805767,2.7681 2.306079,3.1284 1.500313,0.3603 4.612159,-2.0856 4.612159,-2.0856"
       style="fill:none;stroke:#008000;stroke-width:2.19308567;stroke-linecap:round;stroke-linejoin:round;stroke-opacity:1" />
    <path
       style="fill:none;stroke:#0000ff;stroke-width:2.19308567;stroke-linecap:round;stroke-linejoin:round;stroke-opacity:1"
       d="m 36.663488,1035.9004 c 1.820376,0.3535 2.479223,1.1995 3.459119,2.0857 0.979896,0.8862 0.805767,2.7681 2.306079,3.1284 1.500313,0.3603 4.612159,-2.0856 4.612159,-2.0856"
       id="path3760"
       inkscape:connector-curvature="0"
       sodipodi:nodetypes="czzc"
       inkscape:export-filename="/home/glavic/Software/Scripte/QuickNXS/icons/totalReflection.png"
       inkscape:export-xdpi="90"
       inkscape:export-ydpi="90" />
  </g>
</svg>
